<svg xmlns="http://www.w3.org/2000/svg" viewBox="0 0 16 16"><style>.icon-canvas-transparent{opacity:0;fill:#f6f6f6}.icon-vs-out{fill:#f6f6f6}.icon-vs-bg{fill:#424242}</style><path class="icon-canvas-transparent" d="M16 0v16H0V0h16z" id="canvas"/><path class="icon-vs-out" d="M16 12.254v.492L12.746 16h-1.035l-1.604-1.604.397-.396H2V5.496l-.396.397L0 4.289V3.254L3.254 0h.492L7 3.254v1.035L5.396 5.893 5 5.496v3.383L9.879 4H9V1h6v6h-3v-.879L7.121 11h3.383l-.396-.396L11.711 9h1.035L16 12.254z" id="outline"/><path class="icon-vs-bg" d="M14.832 12.5l-2.603 2.604-.707-.707L12.918 13H3V3.082L1.604 4.479l-.708-.708L3.5 1.168l2.604 2.604-.708.707L4 3.082v8.211L12.293 3H10V2h4v4h-1V3.707L4.707 12h8.211l-1.397-1.396.707-.707 2.604 2.603z" id="iconBg"/></svg>