<svg xmlns="http://www.w3.org/2000/svg" viewBox="0 0 16 16" enable-background="new 0 0 16 16"><style type="text/css">.icon-canvas-transparent{opacity:0;fill:#F6F6F6;} .icon-vs-out{fill:#F6F6F6;} .icon-vs-bg{fill:#424242;} .icon-vs-fg{fill:#F0EFF1;} .icon-vs-action-blue{fill:#00539C;}</style><path class="icon-canvas-transparent" d="M16 16h-16v-16h16v16z" id="canvas"/><path class="icon-vs-out" d="M11 3v1.015l-2.267-1.133-3.733 1.867v-1.749h-5v10h5v-1.859l2.156 1.077 3.844-1.923v2.705h5v-10h-5z" id="outline"/><path class="icon-vs-bg" d="M2 5v6h2v1h-3v-8h3v1h-2zm10 6v1h3v-8h-3v1h2v6h-2z" id="iconBg"/><path class="icon-vs-fg" d="M7.156 7.156l-1.578-.789 3.156-1.578 1.578.789-3.156 1.578z" id="iconFg"/><path class="icon-vs-action-blue" d="M8.733 4l-4.733 2.367v3.156l3.156 1.577 4.733-2.367v-3.155l-3.156-1.578zm-1.577 3.156l-1.578-.789 3.156-1.578 1.578.789-3.156 1.578z" id="colorImportance"/></svg>