<svg xmlns="http://www.w3.org/2000/svg" viewBox="0 0 16 16"><style>.st0{opacity:0}.st0,.st1{fill:#f6f6f6}.st2{fill:#424242}.st3{fill:#c27d1a}</style><g id="outline"><path class="st0" d="M0 0h16v16H0z"/><path class="st1" d="M13.432 10.034l1.5-1.5-2.914-2.914-1.414 1.414h-.172L9 5.603V3h-.879l.621-.621L6.621.257 6 .878V0H3v.878L2.379.257.257 2.379.878 3H0v3h.878l-.621.621 5.261 5.327 1.5-1.5v3.586h2.586L11.568 16h.897l3.467-3.466z"/></g><path class="st2" d="M13.018 11.034l-1 1h-3v-3h1l-.5.5 1.5 1.5 2.5-2.5-1.5-1.5-1 1h-3l1-1-2-2-3.5 3.5 2 2 1.5-1.5h1v4h3l-.5.5 1.5 1.5 2.5-2.5z" id="icon_x5F_bg"/><g id="color_x5F_action"><path class="st3" d="M8 4.603V4h-.603zM2.379 7.328L4 5.707v.931L6.638 4h-.931l1.621-1.621-.707-.708L5 3.292V1H4v2.292L2.379 1.671l-.708.708L3.292 4H1v1h2.292L1.671 6.621l.708.707zM4 4h1v1H4V4z"/></g></svg>